<?xml version="1.0" encoding="UTF-8" standalone="no"?>
<!DOCTYPE svg PUBLIC "-//W3C//DTD SVG 1.1//EN" "http://www.w3.org/Graphics/SVG/1.1/DTD/svg11.dtd">
<svg width="100%" height="100%" viewBox="0 0 842 842" version="1.1" xmlns="http://www.w3.org/2000/svg" xmlns:xlink="http://www.w3.org/1999/xlink" xml:space="preserve" xmlns:serif="http://www.serif.com/" style="fill-rule:evenodd;clip-rule:evenodd;stroke-linejoin:round;stroke-miterlimit:1.41421;">
    <g id="Morado">
        <g transform="matrix(1,0,0,1,77.3257,568.329)">
            <path d="M0,91.285L-36.516,0L-19.562,0L8.215,69.508L34.035,0L50.727,0L16.819,91.285L0,91.285Z" style="fill:rgb(29,29,27);fill-rule:nonzero;"/>
        </g>
        <g transform="matrix(1,0,0,1,206.95,568.329)">
            <path d="M0,91.285L-17.216,91.285L-24.258,75.635L-31.3,59.988L-49.816,19.042L-68.335,59.988L-44.601,59.988L-37.558,75.635L-75.377,75.635L-82.416,91.285L-99.631,91.285L-58.424,0L-41.208,0L0,91.285Z" style="fill:rgb(29,29,27);fill-rule:nonzero;"/>
        </g>
        <g transform="matrix(1,0,0,1,264.327,584.109)">
            <path d="M0,59.854L0,75.504L-35.862,75.504L-51.508,75.504L-51.508,59.854L-51.508,-15.65L-35.862,-15.65L-35.862,59.854L0,59.854Z" style="fill:rgb(29,29,27);fill-rule:nonzero;"/>
        </g>
        <g transform="matrix(1,0,0,1,318.315,657.007)">
            <path d="M0,-86.071C3.996,-84.329 7.473,-81.982 10.431,-79.029C13.384,-76.071 15.735,-72.615 17.473,-68.661C19.211,-64.704 20.081,-60.467 20.081,-55.944C20.081,-51.425 19.211,-47.163 17.473,-43.167C15.735,-39.167 13.384,-35.69 10.431,-32.732C7.473,-29.778 3.996,-27.428 0,-25.689C-4,-23.951 -8.262,-23.082 -12.781,-23.082L-25.823,-23.082L-19.431,-38.732L-12.781,-38.732C-8.084,-38.732 -4.042,-40.428 -0.654,-43.817C2.739,-47.21 4.431,-51.252 4.431,-55.944C4.431,-60.724 2.739,-64.724 -0.654,-67.944C-4.042,-71.333 -8.084,-73.028 -12.781,-73.028L-31.169,-73.028L-31.169,2.607L-46.815,2.607L-46.815,-88.678L-12.781,-88.678C-8.262,-88.678 -4,-87.805 0,-86.071" style="fill:rgb(29,29,27);fill-rule:nonzero;"/>
        </g>
        <g transform="matrix(1,0,0,1,425.774,568.329)">
            <path d="M0,91.285L-17.216,91.285L-24.258,75.635L-31.301,59.988L-49.816,19.042L-68.335,59.988L-44.601,59.988L-37.558,75.635L-75.378,75.635L-82.416,91.285L-99.632,91.285L-58.424,0L-41.208,0L0,91.285Z" style="fill:rgb(29,29,27);fill-rule:nonzero;"/>
        </g>
        <g transform="matrix(1,0,0,1,498.54,626.88)">
            <path d="M0,-25.817C0,-22.512 -0.456,-19.365 -1.367,-16.365C-2.283,-13.365 -3.545,-10.605 -5.152,-8.082C-6.76,-5.563 -8.718,-3.28 -11.018,-1.238C-13.325,0.809 -15.865,2.48 -18.646,3.784L0,32.734L-18.646,32.734L-35.208,7.045L-45.904,7.045L-39.512,-8.605L-32.73,-8.605C-28.039,-8.605 -23.992,-10.301 -20.604,-13.69C-19.038,-15.339 -17.823,-17.213 -16.954,-19.297C-16.085,-21.386 -15.65,-23.555 -15.65,-25.817C-15.65,-28.079 -16.085,-30.252 -16.954,-32.34C-17.823,-34.424 -19.038,-36.252 -20.604,-37.817C-23.992,-41.206 -28.039,-42.901 -32.73,-42.901L-51.25,-42.901L-51.25,32.734L-66.896,32.734L-66.896,7.045L-66.896,-34.294L-66.896,-58.551L-32.73,-58.551C-28.212,-58.551 -23.976,-57.678 -20.018,-55.944C-16.063,-54.202 -12.608,-51.855 -9.65,-48.902C-6.696,-45.944 -4.346,-42.488 -2.607,-38.534C-0.869,-34.577 0,-30.339 0,-25.817" style="fill:rgb(29,29,27);fill-rule:nonzero;"/>
        </g>
        <g transform="matrix(1,0,0,1,603.387,568.329)">
            <path d="M0,91.285L-17.216,91.285L-24.258,75.635L-31.301,59.988L-49.815,19.042L-68.335,59.988L-44.601,59.988L-37.558,75.635L-75.378,75.635L-82.416,91.285L-99.632,91.285L-58.424,0L-41.208,0L0,91.285Z" style="fill:rgb(29,29,27);fill-rule:nonzero;"/>
        </g>
        <g transform="matrix(-1,-0,-0,1,1235.46,386.184)">
            <rect x="609.907" y="182.276" width="15.649" height="91.154" style="fill:rgb(29,29,27);"/>
        </g>
        <g transform="matrix(1,0,0,1,699.626,594.152)">
            <path d="M0,39.381C0,43.643 -0.696,47.486 -2.089,50.921C-3.478,54.356 -5.456,57.268 -8.021,59.66C-10.587,62.053 -13.692,63.897 -17.343,65.2C-20.997,66.504 -25.081,67.158 -29.604,67.158C-36.82,67.158 -43.25,66.002 -48.904,63.702C-54.555,61.399 -59.204,58.77 -62.854,55.812L-52.031,44.988C-49.162,47.597 -45.946,49.597 -42.381,50.988C-40.208,51.859 -38.166,52.419 -36.255,52.681C-34.343,52.943 -32.777,53.073 -31.559,53.073C-29.301,53.073 -27.233,52.79 -25.364,52.225C-23.494,51.659 -21.866,50.901 -20.474,49.943C-17.52,47.774 -16.039,44.904 -16.039,41.339C-16.039,39.166 -16.823,37.208 -18.389,35.47C-19.604,34.077 -21.17,32.946 -23.081,32.077C-24.646,31.212 -26.301,30.512 -28.039,29.992C-29.777,29.469 -31.343,28.992 -32.731,28.558C-33.17,28.385 -33.559,28.276 -33.904,28.233C-34.255,28.187 -34.559,28.081 -34.82,27.903C-34.993,27.903 -35.255,27.819 -35.601,27.642C-37.428,27.123 -40.057,26.212 -43.491,24.903C-46.926,23.6 -50.335,21.819 -53.728,19.558C-61.639,14.258 -65.593,7.738 -65.593,0C-65.593,-5.131 -64.702,-9.456 -62.922,-12.974C-61.142,-16.498 -58.813,-19.367 -55.942,-21.583C-53.073,-23.803 -49.879,-25.385 -46.36,-26.343C-42.837,-27.301 -39.381,-27.777 -35.993,-27.777C-29.731,-27.777 -24.474,-27.039 -20.212,-25.561C-15.954,-24.081 -12.566,-22.604 -10.043,-21.127C-8.739,-20.347 -7.629,-19.583 -6.718,-18.845C-5.802,-18.106 -5,-17.431 -4.305,-16.823L-15.389,-5.607C-17.735,-7.958 -20.127,-9.738 -22.562,-10.954C-26.212,-12.692 -30.039,-13.565 -34.035,-13.565C-35.777,-13.565 -37.516,-13.347 -39.255,-12.912C-40.993,-12.477 -42.512,-11.912 -43.815,-11.216C-47.643,-8.869 -49.555,-5.781 -49.555,-1.958C-49.555,0.388 -48.773,2.389 -47.208,4.042C-46.077,5.346 -44.512,6.52 -42.512,7.562C-40.862,8.431 -39.124,9.127 -37.297,9.651C-35.47,10.169 -33.773,10.651 -32.212,11.085L-30.646,11.473C-30.212,11.651 -29.385,11.912 -28.17,12.258C-26.95,12.604 -25.516,13.127 -23.866,13.823C-22.216,14.52 -20.41,15.342 -18.452,16.3C-16.499,17.258 -14.562,18.385 -12.65,19.689C-4.22,25.254 0,31.816 0,39.381" style="fill:rgb(29,29,27);fill-rule:nonzero;"/>
        </g>
        <g transform="matrix(1,0,0,1,753.61,645.664)">
            <path d="M0,-63.643C-4.262,-63.643 -8.304,-62.837 -12.127,-61.23C-15.954,-59.618 -19.389,-57.293 -22.431,-54.25C-25.474,-51.208 -27.798,-47.774 -29.406,-43.951C-31.014,-40.123 -31.819,-36.081 -31.819,-31.824C-31.819,-27.562 -31.014,-23.498 -29.406,-19.629C-27.798,-15.76 -25.474,-12.304 -22.431,-9.262C-19.389,-6.22 -15.954,-3.915 -12.127,-2.35C-8.304,-0.785 -4.262,-0.004 0,-0.004C4.258,-0.004 8.325,-0.785 12.194,-2.35C16.06,-3.915 19.516,-6.22 22.562,-9.262C25.604,-12.304 27.908,-15.76 29.474,-19.629C31.039,-23.498 31.819,-27.562 31.819,-31.824C31.819,-36.081 31.039,-40.123 29.474,-43.951C27.908,-47.774 25.604,-51.208 22.562,-54.25C19.516,-57.293 16.06,-59.618 12.194,-61.23C8.325,-62.837 4.258,-63.643 0,-63.643M0,-79.289C6.52,-79.289 12.671,-78.053 18.452,-75.572C24.232,-73.095 29.275,-69.706 33.579,-65.403C37.883,-61.099 41.275,-56.057 43.752,-50.276C46.229,-44.491 47.47,-38.343 47.47,-31.824C47.47,-25.3 46.229,-19.153 43.752,-13.372C41.275,-7.587 37.883,-2.549 33.579,1.755C29.275,6.059 24.232,9.452 18.452,11.928C12.671,14.405 6.52,15.646 0,15.646C-6.52,15.646 -12.671,14.405 -18.452,11.928C-24.232,9.452 -29.275,6.059 -33.579,1.755C-37.883,-2.549 -41.271,-7.587 -43.752,-13.372C-46.229,-19.153 -47.466,-25.3 -47.466,-31.824C-47.466,-38.343 -46.229,-44.491 -43.752,-50.276C-41.271,-56.057 -37.883,-61.099 -33.579,-65.403C-29.275,-69.706 -24.232,-73.095 -18.452,-75.572C-12.671,-78.053 -6.52,-79.289 0,-79.289" style="fill:rgb(29,29,27);fill-rule:nonzero;"/>
        </g>
        <g transform="matrix(1,0,0,1,393.907,322.534)">
            <path d="M0,53.164L36.181,84.086L83.117,-30.922L30.735,-16.67" style="fill:rgb(87,80,86);fill-rule:nonzero;"/>
        </g>
        <g transform="matrix(1,0,0,1,382.836,479.602)">
            <path d="M0,-92.208L35.632,-59.7L-77.858,0L-68.458,-53.465" style="fill:rgb(87,80,86);fill-rule:nonzero;"/>
        </g>
        <g transform="matrix(1,0,0,1,493.357,428.048)">
            <path d="M0,38.383L58.374,91.64L13.498,-53.257L-28.853,-35.084" style="fill:rgb(87,80,86);fill-rule:nonzero;"/>
        </g>
        <g transform="matrix(1,0,0,1,486.216,510.288)">
            <path d="M0,-28.577L57.463,23.848L-95.678,-8.589L-81.457,-52.425" style="fill:rgb(87,80,86);fill-rule:nonzero;"/>
        </g>
        <g transform="matrix(1,0,0,1,430.347,330.856)">
            <path d="M0,78.088L27.722,64.795L76.509,43.935L61.842,0L-36.44,44.842L0,78.088Z" style="fill:rgb(236,107,53);fill-rule:nonzero;"/>
        </g>
        <g transform="matrix(1,0,0,1,418.468,468.418)">
            <path d="M0,-48.516L-11.622,-17.209L-27.931,33.282L-73.024,22.696L-36.479,-81.798L0,-48.516Z" style="fill:rgb(236,107,53);fill-rule:nonzero;"/>
        </g>
        <g transform="matrix(1,0,0,1,401.47,247.676)">
            <path d="M0,76.239L26.766,64.795L75.554,43.936L60.887,0L-37.885,41.676L0,76.239Z" style="fill:rgb(229,20,103);fill-rule:nonzero;"/>
        </g>
        <g transform="matrix(1,0,0,1,330.234,445.038)">
            <path d="M0,-43.628L-8.947,-15.927L-25.256,34.564L-70.349,23.978L-37.885,-78.192L0,-43.628Z" style="fill:rgb(229,20,103);fill-rule:nonzero;"/>
        </g>
        <g transform="matrix(1,0,0,1,455.17,194.083)">
            <path d="M0,30.433L-14.667,-13.503L-44.752,43.936" style="fill:rgb(127,56,140);fill-rule:nonzero;"/>
        </g>
        <g transform="matrix(1,0,0,1,236.164,418.179)">
            <path d="M0,45.8L-45.093,35.214L9.353,0" style="fill:rgb(127,56,140);fill-rule:nonzero;"/>
        </g>
    </g>
</svg>
