<?xml version="1.0" encoding="UTF-8"?>
<svg clip-rule="evenodd" fill-rule="evenodd" stroke-linecap="round" stroke-linejoin="round" stroke-miterlimit="1.5" version="1.1" viewBox="0 0 3840 2160" xml:space="preserve" xmlns="http://www.w3.org/2000/svg" xmlns:cc="http://creativecommons.org/ns#" xmlns:dc="http://purl.org/dc/elements/1.1/" xmlns:rdf="http://www.w3.org/1999/02/22-rdf-syntax-ns#" xmlns:serif="http://www.serif.com/">
    <metadata>
        <rdf:RDF>
            <cc:Work rdf:about="">
                <dc:format>image/svg+xml</dc:format>
                <dc:type rdf:resource="http://purl.org/dc/dcmitype/StillImage" />
                <dc:title />
            </cc:Work>
        </rdf:RDF>
    </metadata>
        <rect width="1386" height="2160" fill="#2e2e2e" />
          <g transform="matrix(1.1371 0 0 .93919 -196.9 74.128)">
               <path d="m1334 1895.2c0 116.91-70.465 211.83-157.25 211.83-334.06 5.8065-1003.1 2.4111-1003.1 2.4111v-2074.7c305.28 0.51987 662.6 0.24805 1003.1 0.24805 86.787 0 157.25 94.92 157.25 211.83z" fill="#484848" stroke-width=".94804" />
          </g>
          <g transform="matrix(.79849 0 0 1 6.4862 710)">
                    <rect x="57" y="451" width="1191" height="188" fill="#2e2e2e" />
               </g>
               <g transform="matrix(.99395 0 0 1 .52031 0)">
                    <path d="m998.52 1255h-912.52" fill="none" stroke="#000" stroke-width="7.02px" />
               </g>
               <g transform="translate(0 653)">
                    <path d="m378 653.5h-49.406c-24.031-11.374-58.424-13.5-96.594-13.5s-72.563 2.126-96.594 13.5h-49.406v-103h49.442c24.113 11.335 59.564 13.5 99.058 13.5s74.945-2.165 99.058-13.5h44.442v103z" fill="#626262" />
                    <path d="m378 653.5h-49.406c-24.031-11.374-58.424-18.5-96.594-18.5s-72.563 7.126-96.594 18.5h-49.406v-103h49.442c24.113 11.335 59.564 18.5 99.058 18.5s74.945-7.165 99.058-18.5h44.442v103z" fill="#454545" />
                    <g transform="translate(70.694 -664.95)">
                         <text x="98px" y="1280px" fill="white" font-family="'ArialMT', 'Arial', sans-serif" font-size="51.654px">Login</text>
                    </g>
          </g>
               <g transform="matrix(1 0 0 1.1845 8.5 541.95)">
                    <path d="m1275 576.25c0-14.212-13.67-25.75-30.5-25.75h-133c-16.83 0-30.5 11.538-30.5 25.75v51.5c0 14.212 13.67 25.75 30.5 25.75h133c16.83 0 30.5-11.538 30.5-25.75v-51.5z" fill="#ffccd7" />
               </g>
               <g transform="matrix(.79849 0 0 1 6.4862 491)">
                    <rect x="57" y="451" width="1191" height="188" fill="#2e2e2e" />
               </g>
               <g transform="matrix(.99395 0 0 1 .52031 -219)">
                    <path d="m998.52 1255h-912.52" fill="none" stroke="#000" stroke-width="7.02px" />
               </g>
               <g transform="translate(0 434)" serif:id="Fader">
                    <path d="m378 653.5h-49.406c-24.031-11.374-58.424-13.5-96.594-13.5s-72.563 2.126-96.594 13.5h-49.406v-103h49.442c24.113 11.335 59.564 13.5 99.058 13.5s74.945-2.165 99.058-13.5h44.442v103z" fill="#626262" />
                    <path d="m378 653.5h-49.406c-24.031-11.374-58.424-18.5-96.594-18.5s-72.563 7.126-96.594 18.5h-49.406v-103h49.442c24.113 11.335 59.564 18.5 99.058 18.5s74.945-7.165 99.058-18.5h44.442v103z" fill="#454545" />
                    <g transform="translate(58.323 -659.82)">
                    <text x="98px" y="1280px" fill="white" font-family="'ArialMT', 'Arial', sans-serif" font-size="51.654px">T<tspan x="123.827px 152.554px " y="1280px 1280px ">em</tspan>as</text>
                    </g>
               </g>
               <g transform="matrix(1 0 0 1.1845 8.5 322.95)">
                    <path d="m1275 576.25c0-14.212-13.67-25.75-30.5-25.75h-133c-16.83 0-30.5 11.538-30.5 25.75v51.5c0 14.212 13.67 25.75 30.5 25.75h133c16.83 0 30.5-11.538 30.5-25.75v-51.5z" fill="#ffccd7" />
               </g>
               <g transform="matrix(.79849 0 0 1 6.4862 273)">
                    <rect x="57" y="451" width="1191" height="188" fill="#2e2e2e" />
               </g>
               <g transform="matrix(.99395 0 0 1 .52031 -437)">
                    <path d="m998.52 1255h-912.52" fill="none" stroke="#000" stroke-width="7.02px" />
               </g>
               <g transform="translate(0 216)" serif:id="Fader">
                    <path d="m378 653.5h-49.406c-24.031-11.374-58.424-13.5-96.594-13.5s-72.563 2.126-96.594 13.5h-49.406v-103h49.442c24.113 11.335 59.564 13.5 99.058 13.5s74.945-2.165 99.058-13.5h44.442v103z" fill="#626262" />
                    <path d="m378 653.5h-49.406c-24.031-11.374-58.424-18.5-96.594-18.5s-72.563 7.126-96.594 18.5h-49.406v-103h49.442c24.113 11.335 59.564 18.5 99.058 18.5s74.945-7.165 99.058-18.5h44.442v103z" fill="#454545" />
                    <g transform="translate(80.215 -659.51)">
                    <text x="98px" y="1280px" fill="white" font-family="'ArialMT', 'Arial', sans-serif" font-size="51.654px">RSS</text>
                    </g>
               </g>
               <g transform="matrix(1 0 0 1.1845 8.5 104.95)">
                    <path d="m1275 576.25c0-14.212-13.67-25.75-30.5-25.75h-133c-16.83 0-30.5 11.538-30.5 25.75v51.5c0 14.212 13.67 25.75 30.5 25.75h133c16.83 0 30.5-11.538 30.5-25.75v-51.5z" fill="#ffccd7" />
               </g>
               <g transform="matrix(.79849 0 0 1 6.4862 57)">
                    <rect x="57" y="451" width="1191" height="188" fill="#2e2e2e" />
               </g>
               <g transform="matrix(.99395 0 0 1 .52031 -653)">
                    <path d="m998.52 1255h-912.52" fill="none" stroke="#000" stroke-width="7.02px" />
               </g>
               <g serif:id="Fader">
                    <path d="m378 653.5h-49.406c-24.031-11.374-58.424-13.5-96.594-13.5s-72.563 2.126-96.594 13.5h-49.406v-103h49.442c24.113 11.335 59.564 13.5 99.058 13.5s74.945-2.165 99.058-13.5h44.442v103z" fill="#626262" />
                    <path d="m378 653.5h-49.406c-24.031-11.374-58.424-18.5-96.594-18.5s-72.563 7.126-96.594 18.5h-49.406v-103h49.442c24.113 11.335 59.564 18.5 99.058 18.5s74.945-7.165 99.058-18.5h44.442v103z" fill="#454545" />
                    <g transform="translate(8.7624 -659.51)">
                    <text x="98px" y="1280px" fill="white" font-family="'ArialMT', 'Arial', sans-serif" font-size="51.654px">Calendario</text>
                    </g>
               </g>
               <g transform="matrix(1 0 0 1.1845 8.5 -111.05)">
                    <path d="m1275 576.25c0-14.212-13.67-25.75-30.5-25.75h-133c-16.83 0-30.5 11.538-30.5 25.75v51.5c0 14.212 13.67 25.75 30.5 25.75h133c16.83 0 30.5-11.538 30.5-25.75v-51.5z" fill="#ffccd7" />
               </g>
        <g transform="matrix(.6801 0 0 2.6968 394.23 272.74)">
            <path d="m1248 498c0-25.94-83.51-47-186.37-47h-1004.6v188h1004.6c102.86 0 186.37-21.06 186.37-47v-94z" fill="#2e2e2e" />
        </g>
        <g transform="translate(-164)">
            <circle cx="636.5" cy="1542.5" r="22.5" fill="#1f1f1f" />
        </g>
        <g transform="translate(-164 55)">
            <circle cx="636.5" cy="1542.5" r="22.5" fill="#1f1f1f" />
        </g>
        <g transform="translate(-164 110)">
            <circle cx="636.5" cy="1542.5" r="22.5" fill="#1f1f1f" />
        </g>
        <path d="m1184 1644.6c0-56.37-45.76-102.13-102.12-102.13h-376.88v408.5h376.88c56.36 0 102.12-45.76 102.12-102.12v-204.25z" fill="#d1d1d1" />
        <g transform="translate(1.4697 40)">
            <text x="752px" y="1622px" font-family="'ArialMT', 'Arial', sans-serif" font-size="51.654px">User:</text>
        </g>
        <g transform="translate(1.5453 205.14)">
            <text x="752px" y="1622px" font-family="'ArialMT', 'Arial', sans-serif" font-size="51.654px">Password:</text>
        </g>
        <rect x="756.06" y="1670" width="373.94" height="3" fill="#454545" />
        <g transform="translate(1.4697 160)">
            <rect x="756.06" y="1670" width="373.94" height="3" fill="#454545" />
        </g>
        <g transform="matrix(1 0 0 .64925 0 595.92)">
            <path d="m681 1715.8c0-9.24-4.873-16.75-10.875-16.75h-186.75c-6.002 0-10.875 7.51-10.875 16.75v33.5c0 9.25 4.873 16.75 10.875 16.75h186.75c6.002 0 10.875-7.5 10.875-16.75v-33.5z" fill="#d1d1d1" />
        </g>
        <g transform="matrix(1 0 0 .64925 0 670.92)">
            <path d="m681 1715.8c0-9.24-4.873-16.75-10.875-16.75h-186.75c-6.002 0-10.875 7.51-10.875 16.75v33.5c0 9.25 4.873 16.75 10.875 16.75h186.75c6.002 0 10.875-7.5 10.875-16.75v-33.5z" fill="#d1d1d1" />
        </g>
        <g transform="matrix(.74675 0 0 .74675 122.27 433)">
            <text x="484px" y="1734px" font-family="'ArialMT', 'Arial', sans-serif" font-size="37.693px">Login</text>
        </g>
        <g transform="matrix(.74675 0 0 .74675 122.27 508.17)">
            <text x="484px" y="1734px" font-family="'ArialMT', 'Arial', sans-serif" font-size="37.693px">Google +</text>
        </g>
        <g transform="translate(1.6078 -227.86)" clip-rule="evenodd" fill-rule="evenodd" stroke-linecap="round" stroke-linejoin="round" stroke-miterlimit="1.5">
          <g transform="matrix(.79849 0 0 1 6.4862 57)">
               <rect x="57" y="451" width="1191" height="188" fill="#2e2e2e" />
          </g>
          <g transform="matrix(.99395 0 0 1 .52031 -653)">
               <path d="M 998.521,1255 H 86" fill="none" stroke="#000" stroke-width="7.02px" />
          </g>
          <g serif:id="Fader">
               <path d="m378 653.5h-49.406c-24.031-11.374-58.424-13.5-96.594-13.5s-72.563 2.126-96.594 13.5h-49.406v-103h49.442c24.113 11.335 59.564 13.5 99.058 13.5s74.945-2.165 99.058-13.5h44.442z" fill="#626262" />
               <path d="m378 653.5h-49.406c-24.031-11.374-58.424-18.5-96.594-18.5s-72.563 7.126-96.594 18.5h-49.406v-103h49.442c24.113 11.335 59.564 18.5 99.058 18.5s74.945-7.165 99.058-18.5h44.442z" fill="#454545" />
               <g transform="translate(8.7624 -659.51)">
                    <text x="161.46967" y="1279.6979" fill="#ffffff" font-family="ArialMT, Arial, sans-serif" font-size="51.654px">Inicio</text>
               </g>
          </g>
          <g transform="matrix(1 0 0 1.1845 8.5 -111.05)">
               <path d="m1275 576.25c0-14.212-13.67-25.75-30.5-25.75h-133c-16.83 0-30.5 11.538-30.5 25.75v51.5c0 14.212 13.67 25.75 30.5 25.75h133c16.83 0 30.5-11.538 30.5-25.75z" fill="#ffccd7" />
          </g>
        </g>
     </svg>